<mxfile host="app.diagrams.net" modified="2021-10-24T10:19:03.356Z" agent="5.0 (Macintosh; Intel Mac OS X 10_15_7) AppleWebKit/605.1.15 (KHTML, like Gecko) Version/15.0 Safari/605.1.15" etag="L7dh6V7Gu_c9gScvzIkn" version="15.5.9" type="github">
  <diagram id="C5RBs43oDa-KdzZeNtuy" name="Page-1">
    <mxGraphModel dx="1715" dy="671" grid="1" gridSize="10" guides="1" tooltips="1" connect="1" arrows="1" fold="1" page="1" pageScale="1" pageWidth="827" pageHeight="1169" math="0" shadow="0">
      <root>
        <mxCell id="WIyWlLk6GJQsqaUBKTNV-0" />
        <mxCell id="WIyWlLk6GJQsqaUBKTNV-1" parent="WIyWlLk6GJQsqaUBKTNV-0" />
        <mxCell id="iVkiRPFq6VDE8MjFtIdI-0" value="&lt;b&gt;&lt;font style=&quot;font-size: 24px&quot;&gt;&quot;scissorsAPP&quot; ER Diagram&lt;/font&gt;&lt;/b&gt;" style="text;html=1;strokeColor=none;fillColor=none;align=center;verticalAlign=middle;whiteSpace=wrap;rounded=0;" parent="WIyWlLk6GJQsqaUBKTNV-1" vertex="1">
          <mxGeometry x="240" width="350" height="80" as="geometry" />
        </mxCell>
        <mxCell id="-wI8mwQkForI5VrhJktl-148" style="edgeStyle=orthogonalEdgeStyle;rounded=0;orthogonalLoop=1;jettySize=auto;html=1;exitX=0.75;exitY=0;exitDx=0;exitDy=0;entryX=0;entryY=0.5;entryDx=0;entryDy=0;fontFamily=Helvetica;endArrow=none;endFill=0;" edge="1" parent="WIyWlLk6GJQsqaUBKTNV-1" source="-wI8mwQkForI5VrhJktl-3" target="-wI8mwQkForI5VrhJktl-129">
          <mxGeometry relative="1" as="geometry" />
        </mxCell>
        <mxCell id="-wI8mwQkForI5VrhJktl-149" style="edgeStyle=orthogonalEdgeStyle;rounded=0;orthogonalLoop=1;jettySize=auto;html=1;exitX=1;exitY=0.5;exitDx=0;exitDy=0;fontFamily=Helvetica;endArrow=none;endFill=0;" edge="1" parent="WIyWlLk6GJQsqaUBKTNV-1" source="-wI8mwQkForI5VrhJktl-3" target="-wI8mwQkForI5VrhJktl-130">
          <mxGeometry relative="1" as="geometry" />
        </mxCell>
        <mxCell id="-wI8mwQkForI5VrhJktl-150" style="edgeStyle=orthogonalEdgeStyle;rounded=0;orthogonalLoop=1;jettySize=auto;html=1;exitX=0.75;exitY=1;exitDx=0;exitDy=0;entryX=0;entryY=0.5;entryDx=0;entryDy=0;fontFamily=Helvetica;endArrow=none;endFill=0;" edge="1" parent="WIyWlLk6GJQsqaUBKTNV-1" source="-wI8mwQkForI5VrhJktl-3" target="-wI8mwQkForI5VrhJktl-131">
          <mxGeometry relative="1" as="geometry" />
        </mxCell>
        <mxCell id="-wI8mwQkForI5VrhJktl-161" style="edgeStyle=orthogonalEdgeStyle;rounded=0;orthogonalLoop=1;jettySize=auto;html=1;exitX=0.5;exitY=1;exitDx=0;exitDy=0;entryX=0.5;entryY=0;entryDx=0;entryDy=0;fontFamily=Helvetica;endArrow=none;endFill=0;" edge="1" parent="WIyWlLk6GJQsqaUBKTNV-1" source="-wI8mwQkForI5VrhJktl-3" target="-wI8mwQkForI5VrhJktl-159">
          <mxGeometry relative="1" as="geometry" />
        </mxCell>
        <mxCell id="-wI8mwQkForI5VrhJktl-3" value="Payment&lt;span style=&quot;color: rgba(0 , 0 , 0 , 0) ; font-family: monospace ; font-size: 0px&quot;&gt;%3CmxGraphModel%3E%3Croot%3E%3CmxCell%20id%3D%220%22%2F%3E%3CmxCell%20id%3D%221%22%20parent%3D%220%22%2F%3E%3CmxCell%20id%3D%222%22%20value%3D%22number%22%20style%3D%22ellipse%3BwhiteSpace%3Dwrap%3Bhtml%3D1%3BfillColor%3D%23dae8fc%3BstrokeColor%3D%236c8ebf%3B%22%20vertex%3D%221%22%20parent%3D%221%22%3E%3CmxGeometry%20x%3D%22365%22%20y%3D%22830%22%20width%3D%2280%22%20height%3D%2230%22%20as%3D%22geometry%22%2F%3E%3C%2FmxCell%3E%3C%2Froot%3E%3C%2FmxGraphModel%3E&lt;/span&gt;" style="rounded=0;whiteSpace=wrap;html=1;fillColor=#f8cecc;strokeColor=#b85450;" vertex="1" parent="WIyWlLk6GJQsqaUBKTNV-1">
          <mxGeometry x="772.4600000000002" y="620" width="70" height="30" as="geometry" />
        </mxCell>
        <mxCell id="-wI8mwQkForI5VrhJktl-69" style="edgeStyle=orthogonalEdgeStyle;rounded=0;orthogonalLoop=1;jettySize=auto;html=1;entryX=0;entryY=0.5;entryDx=0;entryDy=0;fontFamily=Helvetica;endArrow=none;endFill=0;" edge="1" parent="WIyWlLk6GJQsqaUBKTNV-1" source="-wI8mwQkForI5VrhJktl-4" target="-wI8mwQkForI5VrhJktl-53">
          <mxGeometry relative="1" as="geometry" />
        </mxCell>
        <mxCell id="-wI8mwQkForI5VrhJktl-124" style="edgeStyle=orthogonalEdgeStyle;rounded=0;orthogonalLoop=1;jettySize=auto;html=1;exitX=0;exitY=0;exitDx=0;exitDy=0;entryX=0.5;entryY=1;entryDx=0;entryDy=0;fontFamily=Helvetica;endArrow=none;endFill=0;" edge="1" parent="WIyWlLk6GJQsqaUBKTNV-1" source="-wI8mwQkForI5VrhJktl-4" target="-wI8mwQkForI5VrhJktl-73">
          <mxGeometry relative="1" as="geometry" />
        </mxCell>
        <mxCell id="-wI8mwQkForI5VrhJktl-125" style="edgeStyle=orthogonalEdgeStyle;rounded=0;orthogonalLoop=1;jettySize=auto;html=1;exitX=0.25;exitY=0;exitDx=0;exitDy=0;entryX=0.5;entryY=1;entryDx=0;entryDy=0;fontFamily=Helvetica;endArrow=none;endFill=0;" edge="1" parent="WIyWlLk6GJQsqaUBKTNV-1" source="-wI8mwQkForI5VrhJktl-4" target="-wI8mwQkForI5VrhJktl-74">
          <mxGeometry relative="1" as="geometry" />
        </mxCell>
        <mxCell id="-wI8mwQkForI5VrhJktl-126" style="edgeStyle=orthogonalEdgeStyle;rounded=0;orthogonalLoop=1;jettySize=auto;html=1;exitX=0.5;exitY=0;exitDx=0;exitDy=0;fontFamily=Helvetica;endArrow=none;endFill=0;" edge="1" parent="WIyWlLk6GJQsqaUBKTNV-1" source="-wI8mwQkForI5VrhJktl-4" target="-wI8mwQkForI5VrhJktl-84">
          <mxGeometry relative="1" as="geometry" />
        </mxCell>
        <mxCell id="-wI8mwQkForI5VrhJktl-127" style="edgeStyle=orthogonalEdgeStyle;rounded=0;orthogonalLoop=1;jettySize=auto;html=1;exitX=0.75;exitY=0;exitDx=0;exitDy=0;entryX=0.5;entryY=1;entryDx=0;entryDy=0;fontFamily=Helvetica;endArrow=none;endFill=0;" edge="1" parent="WIyWlLk6GJQsqaUBKTNV-1" source="-wI8mwQkForI5VrhJktl-4" target="-wI8mwQkForI5VrhJktl-91">
          <mxGeometry relative="1" as="geometry" />
        </mxCell>
        <mxCell id="-wI8mwQkForI5VrhJktl-165" style="edgeStyle=orthogonalEdgeStyle;rounded=0;orthogonalLoop=1;jettySize=auto;html=1;exitX=0.25;exitY=1;exitDx=0;exitDy=0;entryX=0.5;entryY=0;entryDx=0;entryDy=0;fontFamily=Helvetica;fontSize=24;endArrow=none;endFill=0;" edge="1" parent="WIyWlLk6GJQsqaUBKTNV-1" source="-wI8mwQkForI5VrhJktl-4" target="-wI8mwQkForI5VrhJktl-54">
          <mxGeometry relative="1" as="geometry" />
        </mxCell>
        <mxCell id="-wI8mwQkForI5VrhJktl-166" style="edgeStyle=orthogonalEdgeStyle;rounded=0;orthogonalLoop=1;jettySize=auto;html=1;exitX=0.75;exitY=1;exitDx=0;exitDy=0;entryX=0.5;entryY=0;entryDx=0;entryDy=0;fontFamily=Helvetica;fontSize=24;endArrow=none;endFill=0;" edge="1" parent="WIyWlLk6GJQsqaUBKTNV-1" source="-wI8mwQkForI5VrhJktl-4" target="-wI8mwQkForI5VrhJktl-92">
          <mxGeometry relative="1" as="geometry" />
        </mxCell>
        <mxCell id="-wI8mwQkForI5VrhJktl-4" value="Hairdresser" style="rounded=0;whiteSpace=wrap;html=1;fillColor=#f8cecc;strokeColor=#b85450;" vertex="1" parent="WIyWlLk6GJQsqaUBKTNV-1">
          <mxGeometry x="309" y="195" width="170" height="60" as="geometry" />
        </mxCell>
        <mxCell id="-wI8mwQkForI5VrhJktl-141" style="edgeStyle=orthogonalEdgeStyle;rounded=0;orthogonalLoop=1;jettySize=auto;html=1;exitX=0;exitY=0.75;exitDx=0;exitDy=0;entryX=0.5;entryY=0;entryDx=0;entryDy=0;fontFamily=Helvetica;endArrow=none;endFill=0;" edge="1" parent="WIyWlLk6GJQsqaUBKTNV-1" source="-wI8mwQkForI5VrhJktl-6" target="-wI8mwQkForI5VrhJktl-100">
          <mxGeometry relative="1" as="geometry" />
        </mxCell>
        <mxCell id="-wI8mwQkForI5VrhJktl-6" value="Services" style="rounded=0;whiteSpace=wrap;html=1;fillColor=#f8cecc;strokeColor=#b85450;" vertex="1" parent="WIyWlLk6GJQsqaUBKTNV-1">
          <mxGeometry x="254" y="480" width="70" height="30" as="geometry" />
        </mxCell>
        <mxCell id="-wI8mwQkForI5VrhJktl-76" style="edgeStyle=orthogonalEdgeStyle;rounded=0;orthogonalLoop=1;jettySize=auto;html=1;fontFamily=Helvetica;endArrow=none;endFill=0;" edge="1" parent="WIyWlLk6GJQsqaUBKTNV-1" source="-wI8mwQkForI5VrhJktl-7" target="-wI8mwQkForI5VrhJktl-56">
          <mxGeometry relative="1" as="geometry" />
        </mxCell>
        <mxCell id="-wI8mwQkForI5VrhJktl-146" style="edgeStyle=orthogonalEdgeStyle;rounded=0;orthogonalLoop=1;jettySize=auto;html=1;exitX=1;exitY=0.25;exitDx=0;exitDy=0;entryX=0;entryY=0.5;entryDx=0;entryDy=0;fontFamily=Helvetica;endArrow=none;endFill=0;" edge="1" parent="WIyWlLk6GJQsqaUBKTNV-1" source="-wI8mwQkForI5VrhJktl-7" target="-wI8mwQkForI5VrhJktl-30">
          <mxGeometry relative="1" as="geometry" />
        </mxCell>
        <mxCell id="-wI8mwQkForI5VrhJktl-152" style="edgeStyle=orthogonalEdgeStyle;rounded=0;orthogonalLoop=1;jettySize=auto;html=1;exitX=1;exitY=1;exitDx=0;exitDy=0;entryX=0;entryY=0.5;entryDx=0;entryDy=0;fontFamily=Helvetica;endArrow=none;endFill=0;" edge="1" parent="WIyWlLk6GJQsqaUBKTNV-1" source="-wI8mwQkForI5VrhJktl-7" target="-wI8mwQkForI5VrhJktl-67">
          <mxGeometry relative="1" as="geometry" />
        </mxCell>
        <mxCell id="-wI8mwQkForI5VrhJktl-7" value="Customer" style="rounded=0;whiteSpace=wrap;html=1;fillColor=#f8cecc;strokeColor=#b85450;" vertex="1" parent="WIyWlLk6GJQsqaUBKTNV-1">
          <mxGeometry x="772.46" y="350" width="70" height="70" as="geometry" />
        </mxCell>
        <mxCell id="-wI8mwQkForI5VrhJktl-59" style="edgeStyle=orthogonalEdgeStyle;rounded=0;orthogonalLoop=1;jettySize=auto;html=1;exitX=1;exitY=0.5;exitDx=0;exitDy=0;entryX=0;entryY=0.5;entryDx=0;entryDy=0;fontFamily=Helvetica;endArrow=none;endFill=0;" edge="1" parent="WIyWlLk6GJQsqaUBKTNV-1" source="-wI8mwQkForI5VrhJktl-8" target="-wI8mwQkForI5VrhJktl-58">
          <mxGeometry relative="1" as="geometry" />
        </mxCell>
        <mxCell id="-wI8mwQkForI5VrhJktl-122" style="edgeStyle=orthogonalEdgeStyle;rounded=0;orthogonalLoop=1;jettySize=auto;html=1;exitX=0.25;exitY=0;exitDx=0;exitDy=0;entryX=0.5;entryY=1;entryDx=0;entryDy=0;fontFamily=Helvetica;endArrow=none;endFill=0;" edge="1" parent="WIyWlLk6GJQsqaUBKTNV-1" source="-wI8mwQkForI5VrhJktl-8" target="-wI8mwQkForI5VrhJktl-71">
          <mxGeometry relative="1" as="geometry" />
        </mxCell>
        <mxCell id="-wI8mwQkForI5VrhJktl-123" style="edgeStyle=orthogonalEdgeStyle;rounded=0;orthogonalLoop=1;jettySize=auto;html=1;exitX=0.75;exitY=0;exitDx=0;exitDy=0;entryX=0.5;entryY=1;entryDx=0;entryDy=0;fontFamily=Helvetica;endArrow=none;endFill=0;" edge="1" parent="WIyWlLk6GJQsqaUBKTNV-1" source="-wI8mwQkForI5VrhJktl-8" target="-wI8mwQkForI5VrhJktl-72">
          <mxGeometry relative="1" as="geometry" />
        </mxCell>
        <mxCell id="-wI8mwQkForI5VrhJktl-8" value="Province" style="rounded=0;whiteSpace=wrap;html=1;fillColor=#f8cecc;strokeColor=#b85450;" vertex="1" parent="WIyWlLk6GJQsqaUBKTNV-1">
          <mxGeometry x="9" y="210" width="70" height="30" as="geometry" />
        </mxCell>
        <mxCell id="-wI8mwQkForI5VrhJktl-109" style="edgeStyle=orthogonalEdgeStyle;rounded=0;orthogonalLoop=1;jettySize=auto;html=1;exitX=0.25;exitY=1;exitDx=0;exitDy=0;fontFamily=Helvetica;endArrow=none;endFill=0;" edge="1" parent="WIyWlLk6GJQsqaUBKTNV-1" source="-wI8mwQkForI5VrhJktl-9" target="-wI8mwQkForI5VrhJktl-106">
          <mxGeometry relative="1" as="geometry" />
        </mxCell>
        <mxCell id="-wI8mwQkForI5VrhJktl-117" style="edgeStyle=orthogonalEdgeStyle;rounded=0;orthogonalLoop=1;jettySize=auto;html=1;exitX=0.75;exitY=1;exitDx=0;exitDy=0;fontFamily=Helvetica;endArrow=none;endFill=0;" edge="1" parent="WIyWlLk6GJQsqaUBKTNV-1" source="-wI8mwQkForI5VrhJktl-9" target="-wI8mwQkForI5VrhJktl-108">
          <mxGeometry relative="1" as="geometry" />
        </mxCell>
        <mxCell id="-wI8mwQkForI5VrhJktl-169" style="edgeStyle=orthogonalEdgeStyle;rounded=0;orthogonalLoop=1;jettySize=auto;html=1;exitX=0.5;exitY=1;exitDx=0;exitDy=0;entryX=0.5;entryY=0;entryDx=0;entryDy=0;fontFamily=Helvetica;fontSize=24;endArrow=none;endFill=0;" edge="1" parent="WIyWlLk6GJQsqaUBKTNV-1" source="-wI8mwQkForI5VrhJktl-9" target="-wI8mwQkForI5VrhJktl-107">
          <mxGeometry relative="1" as="geometry" />
        </mxCell>
        <mxCell id="-wI8mwQkForI5VrhJktl-9" value="Campaign" style="rounded=0;whiteSpace=wrap;html=1;fillColor=#f8cecc;strokeColor=#b85450;" vertex="1" parent="WIyWlLk6GJQsqaUBKTNV-1">
          <mxGeometry x="-20" y="480" width="70" height="30" as="geometry" />
        </mxCell>
        <mxCell id="-wI8mwQkForI5VrhJktl-30" value="name" style="ellipse;whiteSpace=wrap;html=1;fillColor=#dae8fc;strokeColor=#6c8ebf;" vertex="1" parent="WIyWlLk6GJQsqaUBKTNV-1">
          <mxGeometry x="899" y="360" width="80" height="30" as="geometry" />
        </mxCell>
        <mxCell id="-wI8mwQkForI5VrhJktl-110" style="edgeStyle=orthogonalEdgeStyle;rounded=0;orthogonalLoop=1;jettySize=auto;html=1;fontFamily=Helvetica;endArrow=none;endFill=0;" edge="1" parent="WIyWlLk6GJQsqaUBKTNV-1" source="-wI8mwQkForI5VrhJktl-53" target="-wI8mwQkForI5VrhJktl-7">
          <mxGeometry relative="1" as="geometry" />
        </mxCell>
        <mxCell id="-wI8mwQkForI5VrhJktl-53" value="serve" style="rhombus;whiteSpace=wrap;html=1;fontFamily=Helvetica;fillColor=#d5e8d4;strokeColor=#82b366;" vertex="1" parent="WIyWlLk6GJQsqaUBKTNV-1">
          <mxGeometry x="767.46" y="205" width="80" height="40" as="geometry" />
        </mxCell>
        <mxCell id="-wI8mwQkForI5VrhJktl-163" style="edgeStyle=orthogonalEdgeStyle;rounded=0;orthogonalLoop=1;jettySize=auto;html=1;exitX=1;exitY=1;exitDx=0;exitDy=0;entryX=0.5;entryY=0;entryDx=0;entryDy=0;fontFamily=Helvetica;fontSize=24;endArrow=none;endFill=0;" edge="1" parent="WIyWlLk6GJQsqaUBKTNV-1" source="-wI8mwQkForI5VrhJktl-54" target="-wI8mwQkForI5VrhJktl-6">
          <mxGeometry relative="1" as="geometry" />
        </mxCell>
        <mxCell id="-wI8mwQkForI5VrhJktl-164" style="edgeStyle=orthogonalEdgeStyle;rounded=0;orthogonalLoop=1;jettySize=auto;html=1;exitX=0;exitY=1;exitDx=0;exitDy=0;fontFamily=Helvetica;fontSize=24;endArrow=none;endFill=0;" edge="1" parent="WIyWlLk6GJQsqaUBKTNV-1" source="-wI8mwQkForI5VrhJktl-54" target="-wI8mwQkForI5VrhJktl-9">
          <mxGeometry relative="1" as="geometry" />
        </mxCell>
        <mxCell id="-wI8mwQkForI5VrhJktl-54" value="offer" style="rhombus;whiteSpace=wrap;html=1;fontFamily=Helvetica;fillColor=#d5e8d4;strokeColor=#82b366;" vertex="1" parent="WIyWlLk6GJQsqaUBKTNV-1">
          <mxGeometry x="139" y="320.5" width="80" height="40" as="geometry" />
        </mxCell>
        <mxCell id="-wI8mwQkForI5VrhJktl-147" style="edgeStyle=orthogonalEdgeStyle;rounded=0;orthogonalLoop=1;jettySize=auto;html=1;fontFamily=Helvetica;endArrow=none;endFill=0;" edge="1" parent="WIyWlLk6GJQsqaUBKTNV-1" source="-wI8mwQkForI5VrhJktl-56" target="-wI8mwQkForI5VrhJktl-3">
          <mxGeometry relative="1" as="geometry" />
        </mxCell>
        <mxCell id="-wI8mwQkForI5VrhJktl-56" value="creates" style="rhombus;whiteSpace=wrap;html=1;fontFamily=Helvetica;fillColor=#d5e8d4;strokeColor=#82b366;" vertex="1" parent="WIyWlLk6GJQsqaUBKTNV-1">
          <mxGeometry x="767.46" y="490" width="80" height="40" as="geometry" />
        </mxCell>
        <mxCell id="-wI8mwQkForI5VrhJktl-90" style="edgeStyle=orthogonalEdgeStyle;rounded=0;orthogonalLoop=1;jettySize=auto;html=1;entryX=0;entryY=0.5;entryDx=0;entryDy=0;fontFamily=Helvetica;endArrow=none;endFill=0;" edge="1" parent="WIyWlLk6GJQsqaUBKTNV-1" source="-wI8mwQkForI5VrhJktl-58" target="-wI8mwQkForI5VrhJktl-4">
          <mxGeometry relative="1" as="geometry" />
        </mxCell>
        <mxCell id="-wI8mwQkForI5VrhJktl-58" value="has" style="rhombus;whiteSpace=wrap;html=1;fontFamily=Helvetica;fillColor=#d5e8d4;strokeColor=#82b366;" vertex="1" parent="WIyWlLk6GJQsqaUBKTNV-1">
          <mxGeometry x="148" y="205" width="80" height="40" as="geometry" />
        </mxCell>
        <mxCell id="-wI8mwQkForI5VrhJktl-145" style="edgeStyle=orthogonalEdgeStyle;rounded=0;orthogonalLoop=1;jettySize=auto;html=1;exitX=0;exitY=0.5;exitDx=0;exitDy=0;entryX=1;entryY=0;entryDx=0;entryDy=0;fontFamily=Helvetica;endArrow=none;endFill=0;" edge="1" parent="WIyWlLk6GJQsqaUBKTNV-1" source="-wI8mwQkForI5VrhJktl-65" target="-wI8mwQkForI5VrhJktl-7">
          <mxGeometry relative="1" as="geometry" />
        </mxCell>
        <mxCell id="-wI8mwQkForI5VrhJktl-65" value="&lt;u&gt;&lt;b&gt;SSN&lt;/b&gt;&lt;/u&gt;" style="ellipse;whiteSpace=wrap;html=1;fillColor=#dae8fc;strokeColor=#6c8ebf;" vertex="1" parent="WIyWlLk6GJQsqaUBKTNV-1">
          <mxGeometry x="869" y="290" width="80" height="30" as="geometry" />
        </mxCell>
        <mxCell id="-wI8mwQkForI5VrhJktl-151" style="edgeStyle=orthogonalEdgeStyle;rounded=0;orthogonalLoop=1;jettySize=auto;html=1;exitX=0;exitY=0.5;exitDx=0;exitDy=0;entryX=1;entryY=0.75;entryDx=0;entryDy=0;fontFamily=Helvetica;endArrow=none;endFill=0;" edge="1" parent="WIyWlLk6GJQsqaUBKTNV-1" source="-wI8mwQkForI5VrhJktl-66" target="-wI8mwQkForI5VrhJktl-7">
          <mxGeometry relative="1" as="geometry" />
        </mxCell>
        <mxCell id="-wI8mwQkForI5VrhJktl-66" value="surname" style="ellipse;whiteSpace=wrap;html=1;fillColor=#dae8fc;strokeColor=#6c8ebf;" vertex="1" parent="WIyWlLk6GJQsqaUBKTNV-1">
          <mxGeometry x="899" y="400" width="80" height="30" as="geometry" />
        </mxCell>
        <mxCell id="-wI8mwQkForI5VrhJktl-67" value="gender" style="ellipse;whiteSpace=wrap;html=1;fillColor=#dae8fc;strokeColor=#6c8ebf;" vertex="1" parent="WIyWlLk6GJQsqaUBKTNV-1">
          <mxGeometry x="868.9999999999999" y="450" width="80" height="30" as="geometry" />
        </mxCell>
        <mxCell id="-wI8mwQkForI5VrhJktl-71" value="name" style="ellipse;whiteSpace=wrap;html=1;fillColor=#dae8fc;strokeColor=#6c8ebf;" vertex="1" parent="WIyWlLk6GJQsqaUBKTNV-1">
          <mxGeometry x="-61" y="140" width="80" height="30" as="geometry" />
        </mxCell>
        <mxCell id="-wI8mwQkForI5VrhJktl-72" value="&lt;u&gt;&lt;b&gt;postcode&lt;/b&gt;&lt;/u&gt;" style="ellipse;whiteSpace=wrap;html=1;fillColor=#dae8fc;strokeColor=#6c8ebf;" vertex="1" parent="WIyWlLk6GJQsqaUBKTNV-1">
          <mxGeometry x="39" y="140" width="80" height="30" as="geometry" />
        </mxCell>
        <mxCell id="-wI8mwQkForI5VrhJktl-73" value="name" style="ellipse;whiteSpace=wrap;html=1;fillColor=#dae8fc;strokeColor=#6c8ebf;" vertex="1" parent="WIyWlLk6GJQsqaUBKTNV-1">
          <mxGeometry x="209" y="120" width="80" height="30" as="geometry" />
        </mxCell>
        <mxCell id="-wI8mwQkForI5VrhJktl-74" value="&lt;u&gt;&lt;b&gt;adress&lt;/b&gt;&lt;/u&gt;" style="ellipse;whiteSpace=wrap;html=1;fillColor=#dae8fc;strokeColor=#6c8ebf;" vertex="1" parent="WIyWlLk6GJQsqaUBKTNV-1">
          <mxGeometry x="299" y="120" width="80" height="30" as="geometry" />
        </mxCell>
        <mxCell id="-wI8mwQkForI5VrhJktl-111" style="edgeStyle=orthogonalEdgeStyle;rounded=0;orthogonalLoop=1;jettySize=auto;html=1;exitX=0;exitY=0.5;exitDx=0;exitDy=0;entryX=1;entryY=0.5;entryDx=0;entryDy=0;fontFamily=Helvetica;endArrow=none;endFill=0;" edge="1" parent="WIyWlLk6GJQsqaUBKTNV-1" source="-wI8mwQkForI5VrhJktl-75" target="-wI8mwQkForI5VrhJktl-97">
          <mxGeometry relative="1" as="geometry" />
        </mxCell>
        <mxCell id="-wI8mwQkForI5VrhJktl-112" style="edgeStyle=orthogonalEdgeStyle;rounded=0;orthogonalLoop=1;jettySize=auto;html=1;exitX=0;exitY=1;exitDx=0;exitDy=0;entryX=1;entryY=0;entryDx=0;entryDy=0;fontFamily=Helvetica;endArrow=none;endFill=0;" edge="1" parent="WIyWlLk6GJQsqaUBKTNV-1" source="-wI8mwQkForI5VrhJktl-75" target="-wI8mwQkForI5VrhJktl-99">
          <mxGeometry relative="1" as="geometry" />
        </mxCell>
        <mxCell id="-wI8mwQkForI5VrhJktl-113" style="edgeStyle=orthogonalEdgeStyle;rounded=0;orthogonalLoop=1;jettySize=auto;html=1;exitX=0.25;exitY=1;exitDx=0;exitDy=0;fontFamily=Helvetica;endArrow=none;endFill=0;" edge="1" parent="WIyWlLk6GJQsqaUBKTNV-1" source="-wI8mwQkForI5VrhJktl-75" target="-wI8mwQkForI5VrhJktl-94">
          <mxGeometry relative="1" as="geometry" />
        </mxCell>
        <mxCell id="-wI8mwQkForI5VrhJktl-114" style="edgeStyle=orthogonalEdgeStyle;rounded=0;orthogonalLoop=1;jettySize=auto;html=1;exitX=0.5;exitY=1;exitDx=0;exitDy=0;fontFamily=Helvetica;endArrow=none;endFill=0;" edge="1" parent="WIyWlLk6GJQsqaUBKTNV-1" source="-wI8mwQkForI5VrhJktl-75" target="-wI8mwQkForI5VrhJktl-96">
          <mxGeometry relative="1" as="geometry" />
        </mxCell>
        <mxCell id="-wI8mwQkForI5VrhJktl-115" style="edgeStyle=orthogonalEdgeStyle;rounded=0;orthogonalLoop=1;jettySize=auto;html=1;exitX=1;exitY=0.75;exitDx=0;exitDy=0;entryX=0;entryY=0.5;entryDx=0;entryDy=0;fontFamily=Helvetica;endArrow=none;endFill=0;" edge="1" parent="WIyWlLk6GJQsqaUBKTNV-1" source="-wI8mwQkForI5VrhJktl-75" target="-wI8mwQkForI5VrhJktl-98">
          <mxGeometry relative="1" as="geometry" />
        </mxCell>
        <mxCell id="-wI8mwQkForI5VrhJktl-116" style="edgeStyle=orthogonalEdgeStyle;rounded=0;orthogonalLoop=1;jettySize=auto;html=1;exitX=1;exitY=0.25;exitDx=0;exitDy=0;fontFamily=Helvetica;endArrow=none;endFill=0;" edge="1" parent="WIyWlLk6GJQsqaUBKTNV-1" source="-wI8mwQkForI5VrhJktl-75" target="-wI8mwQkForI5VrhJktl-95">
          <mxGeometry relative="1" as="geometry" />
        </mxCell>
        <mxCell id="-wI8mwQkForI5VrhJktl-75" value="Satisfaction Score" style="rounded=0;whiteSpace=wrap;html=1;fillColor=#f8cecc;strokeColor=#b85450;" vertex="1" parent="WIyWlLk6GJQsqaUBKTNV-1">
          <mxGeometry x="554" y="480" width="70" height="30" as="geometry" />
        </mxCell>
        <mxCell id="-wI8mwQkForI5VrhJktl-84" value="workingHours" style="ellipse;whiteSpace=wrap;html=1;fillColor=#dae8fc;strokeColor=#6c8ebf;" vertex="1" parent="WIyWlLk6GJQsqaUBKTNV-1">
          <mxGeometry x="389" y="120" width="80" height="30" as="geometry" />
        </mxCell>
        <mxCell id="-wI8mwQkForI5VrhJktl-91" value="serveGender" style="ellipse;whiteSpace=wrap;html=1;fillColor=#dae8fc;strokeColor=#6c8ebf;" vertex="1" parent="WIyWlLk6GJQsqaUBKTNV-1">
          <mxGeometry x="504" y="120" width="80" height="30" as="geometry" />
        </mxCell>
        <mxCell id="-wI8mwQkForI5VrhJktl-156" style="edgeStyle=orthogonalEdgeStyle;rounded=0;orthogonalLoop=1;jettySize=auto;html=1;entryX=0.5;entryY=0;entryDx=0;entryDy=0;fontFamily=Helvetica;endArrow=none;endFill=0;" edge="1" parent="WIyWlLk6GJQsqaUBKTNV-1" source="-wI8mwQkForI5VrhJktl-92" target="-wI8mwQkForI5VrhJktl-75">
          <mxGeometry relative="1" as="geometry" />
        </mxCell>
        <mxCell id="-wI8mwQkForI5VrhJktl-92" value="has" style="rhombus;whiteSpace=wrap;html=1;fontFamily=Helvetica;fillColor=#d5e8d4;strokeColor=#82b366;" vertex="1" parent="WIyWlLk6GJQsqaUBKTNV-1">
          <mxGeometry x="549" y="320.5" width="80" height="40" as="geometry" />
        </mxCell>
        <mxCell id="-wI8mwQkForI5VrhJktl-94" value="&lt;u&gt;&lt;b&gt;favorNumber&lt;/b&gt;&lt;/u&gt;" style="ellipse;whiteSpace=wrap;html=1;fillColor=#dae8fc;strokeColor=#6c8ebf;" vertex="1" parent="WIyWlLk6GJQsqaUBKTNV-1">
          <mxGeometry x="500" y="579" width="80" height="30" as="geometry" />
        </mxCell>
        <mxCell id="-wI8mwQkForI5VrhJktl-95" value="numberOfVoters" style="ellipse;whiteSpace=wrap;html=1;fillColor=#dae8fc;strokeColor=#6c8ebf;" vertex="1" parent="WIyWlLk6GJQsqaUBKTNV-1">
          <mxGeometry x="651.5400000000001" y="480" width="101.54" height="30" as="geometry" />
        </mxCell>
        <mxCell id="-wI8mwQkForI5VrhJktl-96" value="numberOfStars" style="ellipse;whiteSpace=wrap;html=1;fillColor=#dae8fc;strokeColor=#6c8ebf;" vertex="1" parent="WIyWlLk6GJQsqaUBKTNV-1">
          <mxGeometry x="594" y="579" width="106" height="30" as="geometry" />
        </mxCell>
        <mxCell id="-wI8mwQkForI5VrhJktl-97" value="speed" style="ellipse;whiteSpace=wrap;html=1;fillColor=#dae8fc;strokeColor=#6c8ebf;" vertex="1" parent="WIyWlLk6GJQsqaUBKTNV-1">
          <mxGeometry x="450" y="480" width="75" height="30" as="geometry" />
        </mxCell>
        <mxCell id="-wI8mwQkForI5VrhJktl-98" value="price" style="ellipse;whiteSpace=wrap;html=1;fillColor=#dae8fc;strokeColor=#6c8ebf;" vertex="1" parent="WIyWlLk6GJQsqaUBKTNV-1">
          <mxGeometry x="664.3100000000001" y="519" width="76" height="30" as="geometry" />
        </mxCell>
        <mxCell id="-wI8mwQkForI5VrhJktl-99" value="cleanliness" style="ellipse;whiteSpace=wrap;html=1;fillColor=#dae8fc;strokeColor=#6c8ebf;" vertex="1" parent="WIyWlLk6GJQsqaUBKTNV-1">
          <mxGeometry x="450" y="519" width="80" height="30" as="geometry" />
        </mxCell>
        <mxCell id="-wI8mwQkForI5VrhJktl-100" value="&lt;u&gt;&lt;b&gt;name&lt;/b&gt;&lt;/u&gt;" style="ellipse;whiteSpace=wrap;html=1;fillColor=#dae8fc;strokeColor=#6c8ebf;" vertex="1" parent="WIyWlLk6GJQsqaUBKTNV-1">
          <mxGeometry x="164" y="540" width="80" height="30" as="geometry" />
        </mxCell>
        <mxCell id="-wI8mwQkForI5VrhJktl-140" style="edgeStyle=orthogonalEdgeStyle;rounded=0;orthogonalLoop=1;jettySize=auto;html=1;exitX=0.5;exitY=0;exitDx=0;exitDy=0;entryX=1;entryY=0.75;entryDx=0;entryDy=0;fontFamily=Helvetica;endArrow=none;endFill=0;" edge="1" parent="WIyWlLk6GJQsqaUBKTNV-1" source="-wI8mwQkForI5VrhJktl-101" target="-wI8mwQkForI5VrhJktl-6">
          <mxGeometry relative="1" as="geometry" />
        </mxCell>
        <mxCell id="-wI8mwQkForI5VrhJktl-101" value="price" style="ellipse;whiteSpace=wrap;html=1;fillColor=#dae8fc;strokeColor=#6c8ebf;" vertex="1" parent="WIyWlLk6GJQsqaUBKTNV-1">
          <mxGeometry x="334" y="540" width="80" height="30" as="geometry" />
        </mxCell>
        <mxCell id="-wI8mwQkForI5VrhJktl-139" style="edgeStyle=orthogonalEdgeStyle;rounded=0;orthogonalLoop=1;jettySize=auto;html=1;exitX=0.5;exitY=0;exitDx=0;exitDy=0;entryX=0.5;entryY=1;entryDx=0;entryDy=0;fontFamily=Helvetica;endArrow=none;endFill=0;" edge="1" parent="WIyWlLk6GJQsqaUBKTNV-1" source="-wI8mwQkForI5VrhJktl-102" target="-wI8mwQkForI5VrhJktl-6">
          <mxGeometry relative="1" as="geometry" />
        </mxCell>
        <mxCell id="-wI8mwQkForI5VrhJktl-102" value="processingTime" style="ellipse;whiteSpace=wrap;html=1;fillColor=#dae8fc;strokeColor=#6c8ebf;" vertex="1" parent="WIyWlLk6GJQsqaUBKTNV-1">
          <mxGeometry x="234" y="570" width="110" height="30" as="geometry" />
        </mxCell>
        <mxCell id="-wI8mwQkForI5VrhJktl-106" value="expirationTime" style="ellipse;whiteSpace=wrap;html=1;fillColor=#dae8fc;strokeColor=#6c8ebf;" vertex="1" parent="WIyWlLk6GJQsqaUBKTNV-1">
          <mxGeometry x="-120" y="550" width="90" height="30" as="geometry" />
        </mxCell>
        <mxCell id="-wI8mwQkForI5VrhJktl-107" value="&lt;u&gt;&lt;b&gt;campaignID&lt;/b&gt;&lt;/u&gt;" style="ellipse;whiteSpace=wrap;html=1;fillColor=#dae8fc;strokeColor=#6c8ebf;" vertex="1" parent="WIyWlLk6GJQsqaUBKTNV-1">
          <mxGeometry x="-25" y="570" width="80" height="30" as="geometry" />
        </mxCell>
        <mxCell id="-wI8mwQkForI5VrhJktl-108" value="type" style="ellipse;whiteSpace=wrap;html=1;fillColor=#dae8fc;strokeColor=#6c8ebf;" vertex="1" parent="WIyWlLk6GJQsqaUBKTNV-1">
          <mxGeometry x="59" y="550" width="80" height="30" as="geometry" />
        </mxCell>
        <mxCell id="-wI8mwQkForI5VrhJktl-129" value="paymentType" style="ellipse;whiteSpace=wrap;html=1;fillColor=#dae8fc;strokeColor=#6c8ebf;" vertex="1" parent="WIyWlLk6GJQsqaUBKTNV-1">
          <mxGeometry x="868.9999999999999" y="580" width="80" height="30" as="geometry" />
        </mxCell>
        <mxCell id="-wI8mwQkForI5VrhJktl-130" value="total" style="ellipse;whiteSpace=wrap;html=1;fillColor=#dae8fc;strokeColor=#6c8ebf;" vertex="1" parent="WIyWlLk6GJQsqaUBKTNV-1">
          <mxGeometry x="878.9999999999999" y="620" width="80" height="30" as="geometry" />
        </mxCell>
        <mxCell id="-wI8mwQkForI5VrhJktl-131" value="&lt;u&gt;&lt;b&gt;id&lt;/b&gt;&lt;/u&gt;" style="ellipse;whiteSpace=wrap;html=1;fillColor=#dae8fc;strokeColor=#6c8ebf;" vertex="1" parent="WIyWlLk6GJQsqaUBKTNV-1">
          <mxGeometry x="868.9999999999999" y="660" width="80" height="30" as="geometry" />
        </mxCell>
        <mxCell id="-wI8mwQkForI5VrhJktl-142" style="edgeStyle=orthogonalEdgeStyle;rounded=0;orthogonalLoop=1;jettySize=auto;html=1;exitX=0.5;exitY=1;exitDx=0;exitDy=0;fontFamily=Helvetica;endArrow=none;endFill=0;" edge="1" parent="WIyWlLk6GJQsqaUBKTNV-1" source="-wI8mwQkForI5VrhJktl-100" target="-wI8mwQkForI5VrhJktl-100">
          <mxGeometry relative="1" as="geometry" />
        </mxCell>
        <mxCell id="-wI8mwQkForI5VrhJktl-159" value="isFilled" style="ellipse;whiteSpace=wrap;html=1;fillColor=#dae8fc;strokeColor=#6c8ebf;" vertex="1" parent="WIyWlLk6GJQsqaUBKTNV-1">
          <mxGeometry x="767.4599999999999" y="710" width="80" height="30" as="geometry" />
        </mxCell>
      </root>
    </mxGraphModel>
  </diagram>
</mxfile>
